<?xml version="1.0" encoding="utf-8"?>
<!-- Generated by IcoMoon.io -->
<!DOCTYPE svg PUBLIC "-//W3C//DTD SVG 1.1//EN" "http://www.w3.org/Graphics/SVG/1.1/DTD/svg11.dtd">
<svg version="1.1" xmlns="http://www.w3.org/2000/svg" xmlns:xlink="http://www.w3.org/1999/xlink" width="128" height="128" viewBox="0 0 128 128">
<g id="icomoon-ignore">
	<line stroke-width="1" x1="" y1="" x2="" y2="" stroke="#449FDB" opacity=""></line>
</g>
	<path d="M108 16h-8v8h4v64h-32v32h-48v-96h4v-8h-8c-2.2 0-4 1.8-4 4v104c0 2.2 1.8 4 4 4h63l29-29v-79c0-2.2-1.8-4-4-4zM80 120v-24h24l-24 24zM96 16h-16v-8c0-4.4-3.6-8-8-8h-16c-4.401 0-8 3.6-8 8v8h-16v16h64v-16zM72 16h-16v-7.986c0.004-0.005 0.009-0.010 0.014-0.014h15.971c0.005 0.005 0.010 0.009 0.015 0.014v7.986z" fill="#ffffff"></path>
</svg>
