<?xml version="1.0" encoding="utf-8"?>
<!-- Generated by IcoMoon.io -->
<!DOCTYPE svg PUBLIC "-//W3C//DTD SVG 1.1//EN" "http://www.w3.org/Graphics/SVG/1.1/DTD/svg11.dtd">
<svg version="1.1" xmlns="http://www.w3.org/2000/svg" xmlns:xlink="http://www.w3.org/1999/xlink" width="128" height="128" viewBox="0 0 128 128">
<g id="icomoon-ignore">
	<line stroke-width="1" x1="" y1="" x2="" y2="" stroke="#449FDB" opacity=""></line>
</g>
	<path d="M112.312 0l8.406 71.445-9.435 1.11-7.507-63.805h-79.552l-7.506 63.805-9.435-1.11 8.405-71.445zM32 16h64v8h-64zM32 32h64v8h-64zM32 48h64v8h-64zM32 64h64v8h-64zM124 80h-120c-2.2 0-3.431 1.707-2.735 3.795l13.47 40.41c0.696 2.087 3.065 3.795 5.265 3.795h88c2.2 0 4.569-1.707 5.265-3.795l13.47-40.411c0.696-2.087-0.535-3.794-2.735-3.794zM80 96h-32v-8h32v8z" fill="#ffffff"></path>
</svg>
