<?xml version="1.0" encoding="utf-8"?>
<!-- Generated by IcoMoon.io -->
<!DOCTYPE svg PUBLIC "-//W3C//DTD SVG 1.1//EN" "http://www.w3.org/Graphics/SVG/1.1/DTD/svg11.dtd">
<svg version="1.1" xmlns="http://www.w3.org/2000/svg" xmlns:xlink="http://www.w3.org/1999/xlink" width="128" height="128" viewBox="0 0 128 128">
<g id="icomoon-ignore">
	<line stroke-width="1" x1="" y1="" x2="" y2="" stroke="#449FDB" opacity=""></line>
</g>
	<path d="M64 0c-34.843 0-63.182 27.845-63.981 62.497 0.74-30.233 23.729-54.497 51.981-54.497 28.719 0 52 25.072 52 56 0 6.627 5.373 12 12 12s12-5.373 12-12c0-35.346-28.654-64-64-64zM64 128c34.844 0 63.182-27.845 63.981-62.497-0.74 30.233-23.729 54.497-51.981 54.497-28.719 0-52-25.072-52-56 0-6.627-5.372-12-12-12s-12 5.373-12 12c0 35.346 28.654 64 64 64z" fill="#ffffff"></path>
</svg>
