<?xml version="1.0" encoding="utf-8"?>
<!-- Generated by IcoMoon.io -->
<!DOCTYPE svg PUBLIC "-//W3C//DTD SVG 1.1//EN" "http://www.w3.org/Graphics/SVG/1.1/DTD/svg11.dtd">
<svg version="1.1" xmlns="http://www.w3.org/2000/svg" xmlns:xlink="http://www.w3.org/1999/xlink" width="128" height="128" viewBox="0 0 128 128">
<g id="icomoon-ignore">
	<line stroke-width="1" x1="" y1="" x2="" y2="" stroke="#449FDB" opacity=""></line>
</g>
	<path d="M88 0h-48l-24 16v32h96v-32l-24-16zM80 40h-8v-5.333c0-1.467-1.2-2.667-2.667-2.667h-10.666c-1.466 0-2.667 1.2-2.667 2.667v5.333h-8v-13.333c0-1.467 1.2-2.667 2.667-2.667h26.666c1.467 0 2.667 1.2 2.667 2.667v13.333zM16 88h96v-32h-96v32zM48 66.666c0-1.467 1.2-2.666 2.667-2.666h26.666c1.467 0 2.667 1.2 2.667 2.666v13.334h-8v-5.334c0-1.467-1.2-2.666-2.667-2.666h-10.666c-1.466 0-2.667 1.2-2.667 2.666v5.334h-8v-13.334zM16 128h96v-32h-96v32zM48 106.666c0-1.467 1.2-2.666 2.667-2.666h26.666c1.467 0 2.667 1.2 2.667 2.666v13.334h-8v-5.334c0-1.467-1.2-2.666-2.667-2.666h-10.666c-1.466 0-2.667 1.2-2.667 2.666v5.334h-8v-13.334z" fill="#d6d6d6"></path>
</svg>
