<?xml version="1.0" encoding="utf-8"?>
<!-- Generated by IcoMoon.io -->
<!DOCTYPE svg PUBLIC "-//W3C//DTD SVG 1.1//EN" "http://www.w3.org/Graphics/SVG/1.1/DTD/svg11.dtd">
<svg version="1.1" xmlns="http://www.w3.org/2000/svg" xmlns:xlink="http://www.w3.org/1999/xlink" width="128" height="128" viewBox="0 0 128 128">
<g id="icomoon-ignore">
	<line stroke-width="1" x1="" y1="" x2="" y2="" stroke="#449FDB" opacity=""></line>
</g>
	<path d="M64 12c-13.89 0-26.948 5.409-36.77 15.23s-15.23 22.88-15.23 36.77c0 13.89 5.409 26.948 15.23 36.769s22.88 15.231 36.77 15.231c13.89 0 26.948-5.409 36.769-15.231s15.231-22.88 15.231-36.77c0-13.89-5.409-26.948-15.231-36.77s-22.88-15.23-36.77-15.23zM64 0v0c35.346 0 64 28.654 64 64s-28.654 64-64 64c-35.346 0-64-28.654-64-64s28.654-64 64-64zM56 88h16v16h-16zM56 24h16v48h-16z" fill="#d6d6d6"></path>
</svg>
