<?xml version="1.0" encoding="utf-8"?>
<!-- Generated by IcoMoon.io -->
<!DOCTYPE svg PUBLIC "-//W3C//DTD SVG 1.1//EN" "http://www.w3.org/Graphics/SVG/1.1/DTD/svg11.dtd">
<svg version="1.1" xmlns="http://www.w3.org/2000/svg" xmlns:xlink="http://www.w3.org/1999/xlink" width="128" height="128" viewBox="0 0 128 128">
<g id="icomoon-ignore">
	<line stroke-width="1" x1="" y1="" x2="" y2="" stroke="#449FDB" opacity=""></line>
</g>
	<path d="M108 0h-96c-6.6 0-12 5.4-12 12v104c0 6.6 5.4 12 12 12h96c6.6 0 12-5.4 12-12v-104c0-6.6-5.4-12-12-12zM104 112h-88v-96h88v96zM32 72h56v8h-56zM32 88h56v8h-56zM40 36c0-6.627 5.373-12 12-12s12 5.373 12 12c0 6.627-5.373 12-12 12s-12-5.373-12-12zM60 48h-16c-6.6 0-12 3.6-12 8v8h40v-8c0-4.4-5.4-8-12-8z" fill="#d6d6d6"></path>
</svg>
