<?xml version="1.0" encoding="utf-8"?>
<!-- Generated by IcoMoon.io -->
<!DOCTYPE svg PUBLIC "-//W3C//DTD SVG 1.1//EN" "http://www.w3.org/Graphics/SVG/1.1/DTD/svg11.dtd">
<svg version="1.1" xmlns="http://www.w3.org/2000/svg" xmlns:xlink="http://www.w3.org/1999/xlink" width="128" height="128" viewBox="0 0 128 128">
<g id="icomoon-ignore">
	<line stroke-width="1" x1="" y1="" x2="" y2="" stroke="#449FDB" opacity=""></line>
</g>
	<path d="M48 16c0-8.836 7.163-16 16-16s16 7.163 16 16c0 8.837-7.163 16-16 16s-16-7.163-16-16zM81.941 30.059c0-8.836 7.163-16 16-16s16 7.163 16 16c0 8.836-7.163 16-16 16s-16-7.163-16-16zM104 64c0-4.418 3.582-8 8-8s8 3.582 8 8c0 4.418-3.582 8-8 8s-8-3.582-8-8zM89.941 97.941c0-4.418 3.582-8 8-8s8 3.582 8 8c0 4.418-3.582 8-8 8s-8-3.582-8-8zM56 112c0 0 0 0 0 0 0-4.418 3.582-8 8-8s8 3.582 8 8c0 0 0 0 0 0 0 4.418-3.582 8-8 8s-8-3.582-8-8zM22.059 97.941c0 0 0 0 0 0 0-4.418 3.582-8 8-8s8 3.582 8 8c0 0 0 0 0 0 0 4.418-3.582 8-8 8s-8-3.582-8-8zM18.059 30.059c0 0 0 0 0 0 0-6.627 5.373-12 12-12s12 5.373 12 12c0 0 0 0 0 0 0 6.627-5.373 12-12 12s-12-5.373-12-12zM7 64c0-4.971 4.029-9 9-9s9 4.029 9 9c0 4.971-4.029 9-9 9s-9-4.029-9-9z" fill="#d6d6d6"></path>
</svg>
