<?xml version="1.0" encoding="utf-8"?>
<!-- Generated by IcoMoon.io -->
<!DOCTYPE svg PUBLIC "-//W3C//DTD SVG 1.1//EN" "http://www.w3.org/Graphics/SVG/1.1/DTD/svg11.dtd">
<svg version="1.1" xmlns="http://www.w3.org/2000/svg" xmlns:xlink="http://www.w3.org/1999/xlink" width="128" height="128" viewBox="0 0 128 128">
<g id="icomoon-ignore">
	<line stroke-width="1" x1="" y1="" x2="" y2="" stroke="#449FDB" opacity=""></line>
</g>
	<path d="M16 112h112v16h-128v-128h16zM36 104c-6.628 0-12-5.373-12-12s5.372-12 12-12c0.353 0 0.703 0.019 1.048 0.048l12.899-21.498c-1.23-1.884-1.947-4.133-1.947-6.55 0-6.627 5.373-12 12-12s12 5.373 12 12c0 2.418-0.718 4.666-1.948 6.55l12.899 21.498c0.346-0.030 0.695-0.048 1.049-0.048 0.267 0 0.531 0.012 0.794 0.029l21.294-37.265c-1.317-1.926-2.088-4.255-2.088-6.764 0-6.628 5.373-12 12-12s12 5.372 12 12c0 6.627-5.373 12-12 12-0.267 0-0.531-0.012-0.794-0.029l-21.294 37.266c1.317 1.926 2.088 4.254 2.088 6.764 0 6.627-5.373 12-12 12s-12-5.373-12-12c0-2.418 0.718-4.666 1.947-6.55l-12.899-21.498c-0.346 0.030-0.695 0.048-1.048 0.048s-0.703-0.018-1.048-0.048l-12.899 21.498c1.23 1.883 1.947 4.132 1.947 6.55 0 6.627-5.373 12-12 12z" fill="#d6d6d6"></path>
</svg>
