<?xml version="1.0" encoding="utf-8"?>
<!-- Generated by IcoMoon.io -->
<!DOCTYPE svg PUBLIC "-//W3C//DTD SVG 1.1//EN" "http://www.w3.org/Graphics/SVG/1.1/DTD/svg11.dtd">
<svg version="1.1" xmlns="http://www.w3.org/2000/svg" xmlns:xlink="http://www.w3.org/1999/xlink" width="128" height="128" viewBox="0 0 128 128">
<g id="icomoon-ignore">
	<line stroke-width="1" x1="" y1="" x2="" y2="" stroke="#449FDB" opacity=""></line>
</g>
	<path d="M91.874 100.672c-2.369-0.374-2.423-6.832-2.423-6.832s6.961-6.832 8.478-16.019c4.082 0 6.602-9.767 2.52-13.204 0.17-3.617 5.246-28.397-20.45-28.397s-20.62 24.779-20.45 28.397c-4.082 3.436-1.561 13.204 2.52 13.204 1.517 9.187 8.478 16.019 8.478 16.019s-0.054 6.458-2.423 6.832c-7.631 1.204-36.126 13.665-36.126 27.328h96c0-13.664-28.495-26.124-36.126-27.328zM43.007 102.851c5.512-3.394 12.203-6.538 17.692-8.428-1.969-2.804-4.162-6.617-5.541-11.133-1.926-1.571-3.493-3.817-4.5-6.575-1.008-2.763-1.39-5.856-1.076-8.71 0.225-2.049 0.81-3.958 1.706-5.636-0.544-5.823-0.927-17.254 6.556-25.592 2.902-3.233 6.569-5.558 10.962-6.961-0.784-8.095-4.895-17.596-20.807-17.596-25.695 0-20.62 24.779-20.45 28.397-4.082 3.436-1.561 13.203 2.52 13.203 1.517 9.187 8.478 16.019 8.478 16.019s-0.054 6.458-2.423 6.832c-7.631 1.204-36.126 13.665-36.126 27.328h41.2c0.589-0.384 1.188-0.767 1.807-1.149z" fill="#d6d6d6"></path>
</svg>
