<?xml version="1.0" encoding="utf-8"?>
<!-- Generated by IcoMoon.io -->
<!DOCTYPE svg PUBLIC "-//W3C//DTD SVG 1.1//EN" "http://www.w3.org/Graphics/SVG/1.1/DTD/svg11.dtd">
<svg version="1.1" xmlns="http://www.w3.org/2000/svg" xmlns:xlink="http://www.w3.org/1999/xlink" width="128" height="128" viewBox="0 0 128 128">
<g id="icomoon-ignore">
	<line stroke-width="1" x1="" y1="" x2="" y2="" stroke="#449FDB" opacity=""></line>
</g>
	<path d="M40 48h16v16h-16zM64 48h16v16h-16zM88 48h16v16h-16zM16 96h16v16h-16zM40 96h16v16h-16zM64 96h16v16h-16zM40 72h16v16h-16zM64 72h16v16h-16zM88 72h16v16h-16zM16 72h16v16h-16zM104 0v8h-16v-8h-56v8h-16v-8h-16v128h120v-128h-16zM112 120h-104v-88h104v88z" fill="#ffffff"></path>
</svg>
