<?xml version="1.0" encoding="utf-8"?>
<!-- Generated by IcoMoon.io -->
<!DOCTYPE svg PUBLIC "-//W3C//DTD SVG 1.1//EN" "http://www.w3.org/Graphics/SVG/1.1/DTD/svg11.dtd">
<svg version="1.1" xmlns="http://www.w3.org/2000/svg" xmlns:xlink="http://www.w3.org/1999/xlink" width="128" height="128" viewBox="0 0 128 128">
<g id="icomoon-ignore">
	<line stroke-width="1" x1="" y1="" x2="" y2="" stroke="#449FDB" opacity=""></line>
</g>
	<path d="M111.515 23.515l-15.029-15.030c-4.667-4.667-13.886-8.485-20.486-8.485h-56c-6.6 0-12 5.4-12 12v104c0 6.6 5.4 12 12 12h88c6.6 0 12-5.4 12-12v-72c0-6.6-3.818-15.818-8.485-20.485zM80 16.945c0.275 0.101 0.556 0.21 0.845 0.329 2.257 0.935 3.825 2.022 4.327 2.524l15.029 15.030c0.502 0.502 1.589 2.069 2.524 4.327 0.12 0.288 0.229 0.57 0.329 0.845h-23.055v-23.055zM104 112h-80v-96h48v32h32v64zM32 64h64v8h-64zM32 80h64v8h-64zM32 96h64v8h-64z" fill="#ffffff"></path>
</svg>
