<?xml version="1.0" encoding="utf-8"?>
<!-- Generated by IcoMoon.io -->
<!DOCTYPE svg PUBLIC "-//W3C//DTD SVG 1.1//EN" "http://www.w3.org/Graphics/SVG/1.1/DTD/svg11.dtd">
<svg version="1.1" xmlns="http://www.w3.org/2000/svg" xmlns:xlink="http://www.w3.org/1999/xlink" width="128" height="128" viewBox="0 0 128 128">
<g id="icomoon-ignore">
	<line stroke-width="1" x1="" y1="" x2="" y2="" stroke="#449FDB" opacity=""></line>
</g>
	<path d="M56 99.314l-25.657-29.657 7.314-7.314 18.343 14.343 34.343-30.343 7.314 7.313zM103.972 16c0.010 0.008 0.020 0.019 0.028 0.029v95.943c-0.008 0.010-0.019 0.020-0.028 0.028h-79.943c-0.010-0.008-0.020-0.019-0.029-0.028v-95.943c0.008-0.010 0.019-0.020 0.029-0.029h-16.029v96c0 8.8 7.2 16 16 16h80c8.8 0 16-7.2 16-16v-96h-16.029zM80 16v-8c0-4.418-3.582-8-8-8h-16c-4.418 0-8 3.582-8 8v8h-16v16h64v-16h-16zM72 16h-16v-8h16v8z" fill="#ffffff"></path>
</svg>
