<?xml version="1.0" encoding="utf-8"?>
<!-- Generated by IcoMoon.io -->
<!DOCTYPE svg PUBLIC "-//W3C//DTD SVG 1.1//EN" "http://www.w3.org/Graphics/SVG/1.1/DTD/svg11.dtd">
<svg version="1.1" xmlns="http://www.w3.org/2000/svg" xmlns:xlink="http://www.w3.org/1999/xlink" width="128" height="128" viewBox="0 0 128 128">
<g id="icomoon-ignore">
	<line stroke-width="1" x1="" y1="" x2="" y2="" stroke="#449FDB" opacity=""></line>
</g>
	<path d="M128 48h-48l17.941-17.941c-9.066-9.066-21.12-14.059-33.941-14.059s-24.875 4.993-33.941 14.059c-9.066 9.066-14.059 21.12-14.059 33.941s4.993 24.875 14.059 33.941c9.066 9.066 21.12 14.059 33.941 14.059s24.875-4.993 33.941-14.059c0.757-0.757 1.483-1.537 2.182-2.334l12.040 10.535c-11.731 13.396-28.958 21.857-48.163 21.857-35.346 0-64-28.654-64-64s28.654-64 64-64c17.673 0 33.671 7.166 45.252 18.748l18.748-18.748v48z" fill="#ffffff"></path>
</svg>
